<svg width="26" height="28" viewBox="0 0 26 28" fill="none" xmlns="http://www.w3.org/2000/svg">
<path d="M25 13.6198L13.1 25.6198C12.6383 26.0902 12.0874 26.464 11.4796 26.7191C10.8718 26.9742 10.2192 27.1056 9.56 27.1056C8.90082 27.1056 8.24824 26.9742 7.64042 26.7191C7.0326 26.464 6.48173 26.0902 6.02 25.6198L2.46 21.9998C1.52806 21.0532 1.00571 19.7781 1.00571 18.4498C1.00571 17.1214 1.52806 15.8463 2.46 14.8998L15.14 2.17978C15.5119 1.80486 15.9543 1.50728 16.4417 1.30421C16.9291 1.10114 17.452 0.996582 17.98 0.996582C18.5081 0.996582 19.0309 1.10114 19.5183 1.30421C20.0057 1.50728 20.4482 1.80486 20.82 2.17978L22.24 3.59978C22.6149 3.97163 22.9125 4.41403 23.1156 4.90147C23.3186 5.38891 23.4232 5.91173 23.4232 6.43978C23.4232 6.96782 23.3186 7.49065 23.1156 7.97808C22.9125 8.46552 22.6149 8.90792 22.24 9.27978L11 20.5598C10.8141 20.7472 10.5929 20.896 10.3492 20.9976C10.1054 21.0991 9.84403 21.1514 9.58 21.1514C9.31598 21.1514 9.05457 21.0991 8.81085 20.9976C8.56713 20.896 8.34593 20.7472 8.16 20.5598L7.46 19.8398C7.27255 19.6539 7.12376 19.4326 7.02222 19.1889C6.92068 18.9452 6.86841 18.6838 6.86841 18.4198C6.86841 18.1558 6.92068 17.8943 7.02222 17.6506C7.12376 17.4069 7.27255 17.1857 7.46 16.9998L15 9.51978" stroke="#0066FF" stroke-linecap="round" stroke-linejoin="round"/>
</svg>
